G04 Layer_Color=8388736*
%FSLAX44Y44*%
%MOMM*%
G71*
G01*
G75*
%ADD35C,2.2032*%
%ADD36R,1.8032X1.8032*%
%ADD37C,1.8032*%
%ADD38R,3.2032X3.2032*%
%ADD39C,3.2032*%
%ADD40C,1.7232*%
%ADD41R,1.7232X1.7232*%
%ADD42O,4.2672X2.7432*%
%ADD43O,2.7432X4.2672*%
%ADD44O,2.1082X2.4892*%
%ADD45R,2.1082X2.4892*%
%ADD46C,1.7272*%
%ADD47R,2.7032X2.7032*%
%ADD48R,1.8032X1.8032*%
%ADD49P,2.0070X8X112.5*%
%ADD50C,1.8542*%
%ADD51C,2.3622*%
%ADD52O,1.7272X2.3876*%
%ADD53R,1.7272X2.3876*%
%ADD54O,2.0032X1.7032*%
%ADD55R,1.7832X1.7032*%
%ADD56C,1.4732*%
D35*
X267970Y157480D02*
D03*
X233680Y156210D02*
D03*
X267970Y86360D02*
D03*
X233680Y85090D02*
D03*
X21590Y53340D02*
D03*
Y104140D02*
D03*
D36*
X552450Y524510D02*
D03*
Y41910D02*
D03*
X730250D02*
D03*
X283210Y524510D02*
D03*
X551180Y572770D02*
D03*
X495300Y12700D02*
D03*
D37*
X577850Y524510D02*
D03*
X603250D02*
D03*
X628650D02*
D03*
X654050D02*
D03*
X679450D02*
D03*
X704850D02*
D03*
X730250D02*
D03*
X374650Y41910D02*
D03*
X400050D02*
D03*
X425450D02*
D03*
X450850D02*
D03*
X476250D02*
D03*
X501650D02*
D03*
X527050D02*
D03*
X704850D02*
D03*
X679450D02*
D03*
X654050D02*
D03*
X628650D02*
D03*
X603250D02*
D03*
X334010Y524510D02*
D03*
X511810D02*
D03*
X486410D02*
D03*
X461010D02*
D03*
X435610D02*
D03*
X410210D02*
D03*
X384810D02*
D03*
X359410D02*
D03*
X308610D02*
D03*
X69850Y53340D02*
D03*
Y104140D02*
D03*
Y154940D02*
D03*
Y205740D02*
D03*
Y256540D02*
D03*
Y307340D02*
D03*
X767080Y53340D02*
D03*
Y104140D02*
D03*
Y154940D02*
D03*
Y205740D02*
D03*
Y256540D02*
D03*
Y307340D02*
D03*
X627380Y572770D02*
D03*
X601980D02*
D03*
X576580D02*
D03*
X469900Y12700D02*
D03*
D38*
X307340Y654050D02*
D03*
D39*
X306070Y695960D02*
D03*
D40*
X173990Y519430D02*
D03*
X148590D02*
D03*
X123190D02*
D03*
X140970Y25400D02*
D03*
X166370D02*
D03*
X191770D02*
D03*
X217170D02*
D03*
X242570D02*
D03*
X267970D02*
D03*
D41*
X97790Y519430D02*
D03*
X115570Y25400D02*
D03*
D42*
X748030Y571500D02*
D03*
Y635000D02*
D03*
D43*
X697230Y596900D02*
D03*
D44*
X506730Y585470D02*
D03*
X481330D02*
D03*
X455930D02*
D03*
X364490D02*
D03*
X339090D02*
D03*
X313690D02*
D03*
X641350Y203200D02*
D03*
X615950D02*
D03*
X590550D02*
D03*
D45*
X430530Y585470D02*
D03*
X288290D02*
D03*
X565150Y203200D02*
D03*
D46*
X222431Y694690D02*
D03*
X197394D02*
D03*
X172357D02*
D03*
X147320D02*
D03*
X122283D02*
D03*
X97246D02*
D03*
X72209D02*
D03*
X47172D02*
D03*
X222431Y567690D02*
D03*
X197394D02*
D03*
X172357D02*
D03*
X147320D02*
D03*
X122283D02*
D03*
X97246D02*
D03*
X72209D02*
D03*
X47172D02*
D03*
D47*
X552450Y668020D02*
D03*
X603250D02*
D03*
X372110D02*
D03*
X422910D02*
D03*
D48*
X69850Y281940D02*
D03*
Y231140D02*
D03*
Y180340D02*
D03*
Y129540D02*
D03*
Y78740D02*
D03*
X767080D02*
D03*
Y129540D02*
D03*
Y180340D02*
D03*
Y231140D02*
D03*
Y281940D02*
D03*
D49*
X69850Y436880D02*
D03*
Y383540D02*
D03*
D50*
Y462280D02*
D03*
Y408940D02*
D03*
D51*
X121920Y444500D02*
D03*
X198120D02*
D03*
X121920Y397510D02*
D03*
X198120D02*
D03*
D52*
X645160Y129032D02*
D03*
X619760D02*
D03*
X594614D02*
D03*
X568960Y129540D02*
D03*
X568706Y103378D02*
D03*
X594233Y103759D02*
D03*
X619506Y103378D02*
D03*
D53*
X644906D02*
D03*
D54*
X215900Y651510D02*
D03*
D55*
Y626110D02*
D03*
D56*
X679450Y234950D02*
D03*
Y203200D02*
D03*
X472440Y463550D02*
D03*
Y556260D02*
D03*
X504190Y66040D02*
D03*
X502920Y142240D02*
D03*
X175260Y608330D02*
D03*
X255270D02*
D03*
X485140Y491490D02*
D03*
X546100D02*
D03*
M02*
