G04 Layer_Color=2752767*
%FSTAX44Y44*%
%MOMM*%
G71*
G01*
G75*
%ADD36C,0.0508*%
%ADD37C,0.0677*%
%ADD38C,0.0339*%
D36*
X01137158Y00234188D02*
Y00238252D01*
X01141222D01*
Y00234188D01*
X01137158D01*
X00292608D02*
Y00238252D01*
X00296672D01*
Y00234188D01*
X00292608D01*
Y00953008D02*
Y00957072D01*
X00296672D01*
Y00953008D01*
X00292608D01*
X01137158D02*
Y00957072D01*
X01141222D01*
Y00953008D01*
X01137158D01*
X0086995Y00765048D02*
X00867918Y00769112D01*
X00871982D01*
X0086995Y00765048D01*
X0089535D02*
X00893318Y00769112D01*
X00897382D01*
X0089535Y00765048D01*
X0092075D02*
X00918718Y00769112D01*
X00922782D01*
X0092075Y00765048D01*
X0094615D02*
X00944118Y00769112D01*
X00948182D01*
X0094615Y00765048D01*
X0097155D02*
X00969518Y00769112D01*
X00973582D01*
X0097155Y00765048D01*
X0099695D02*
X00994918Y00769112D01*
X00998982D01*
X0099695Y00765048D01*
X0102235D02*
X01020318Y00769112D01*
X01024382D01*
X0102235Y00765048D01*
X0104775D02*
X01045718Y00769112D01*
X01049782D01*
X0104775Y00765048D01*
X0069215Y00282448D02*
X00690118Y00286512D01*
X00694182D01*
X0069215Y00282448D01*
X0071755D02*
X00715518Y00286512D01*
X00719582D01*
X0071755Y00282448D01*
X0074295D02*
X00740918Y00286512D01*
X00744982D01*
X0074295Y00282448D01*
X0076835D02*
X00766318Y00286512D01*
X00770382D01*
X0076835Y00282448D01*
X0079375D02*
X00791718Y00286512D01*
X00795782D01*
X0079375Y00282448D01*
X0081915D02*
X00817118Y00286512D01*
X00821182D01*
X0081915Y00282448D01*
X0084455D02*
X00842518Y00286512D01*
X00846582D01*
X0084455Y00282448D01*
X0086995D02*
X00867918Y00286512D01*
X00871982D01*
X0086995Y00282448D01*
X0104775D02*
X01045718Y00286512D01*
X01049782D01*
X0104775Y00282448D01*
X0102235D02*
X01020318Y00286512D01*
X01024382D01*
X0102235Y00282448D01*
X0099695D02*
X00994918Y00286512D01*
X00998982D01*
X0099695Y00282448D01*
X0097155D02*
X00969518Y00286512D01*
X00973582D01*
X0097155Y00282448D01*
X0094615D02*
X00944118Y00286512D01*
X00948182D01*
X0094615Y00282448D01*
X0092075D02*
X00918718Y00286512D01*
X00922782D01*
X0092075Y00282448D01*
X0065151Y00765048D02*
X00649478Y00769112D01*
X00653542D01*
X0065151Y00765048D01*
X0082931D02*
X00827278Y00769112D01*
X00831342D01*
X0082931Y00765048D01*
X0080391D02*
X00801878Y00769112D01*
X00805942D01*
X0080391Y00765048D01*
X0077851D02*
X00776478Y00769112D01*
X00780542D01*
X0077851Y00765048D01*
X0075311D02*
X00751078Y00769112D01*
X00755142D01*
X0075311Y00765048D01*
X0072771D02*
X00725678Y00769112D01*
X00729742D01*
X0072771Y00765048D01*
X0070231D02*
X00700278Y00769112D01*
X00704342D01*
X0070231Y00765048D01*
X0067691D02*
X00674878Y00769112D01*
X00678942D01*
X0067691Y00765048D01*
X0062611D02*
X00624078Y00769112D01*
X00628142D01*
X0062611Y00765048D01*
X0060071D02*
X00598678Y00769112D01*
X00602742D01*
X0060071Y00765048D01*
X0049149Y00759968D02*
X00492506Y00760984D01*
X00493522D01*
X00492506Y00762D01*
X00493522Y00763016D01*
X00492506D01*
X0049149Y00764032D01*
X00490474Y00763016D01*
X00489458D01*
X00490474Y00762D01*
X00489458Y00760984D01*
X00490474D01*
X0049149Y00759968D01*
X0046609D02*
X00467106Y00760984D01*
X00468122D01*
X00467106Y00762D01*
X00468122Y00763016D01*
X00467106D01*
X0046609Y00764032D01*
X00465074Y00763016D01*
X00464058D01*
X00465074Y00762D01*
X00464058Y00760984D01*
X00465074D01*
X0046609Y00759968D01*
X0044069D02*
X00441706Y00760984D01*
X00442722D01*
X00441706Y00762D01*
X00442722Y00763016D01*
X00441706D01*
X0044069Y00764032D01*
X00439674Y00763016D01*
X00438658D01*
X00439674Y00762D01*
X00438658Y00760984D01*
X00439674D01*
X0044069Y00759968D01*
X0041529D02*
X00416306Y00760984D01*
X00417322D01*
X00416306Y00762D01*
X00417322Y00763016D01*
X00416306D01*
X0041529Y00764032D01*
X00414274Y00763016D01*
X00413258D01*
X00414274Y00762D01*
X00413258Y00760984D01*
X00414274D01*
X0041529Y00759968D01*
X01063498Y00812038D02*
X01064514Y0081407D01*
X01063498Y00816102D01*
X0106553Y00815086D01*
X01067562Y00816102D01*
X01066546Y0081407D01*
X01067562Y00812038D01*
X0106553Y00813054D01*
X01063498Y00812038D01*
Y00875538D02*
X01064514Y0087757D01*
X01063498Y00879602D01*
X0106553Y00878586D01*
X01067562Y00879602D01*
X01066546Y0087757D01*
X01067562Y00875538D01*
X0106553Y00876554D01*
X01063498Y00875538D01*
X01012698Y00837438D02*
X01013714Y0083947D01*
X01012698Y00841502D01*
X0101473Y00840486D01*
X01016762Y00841502D01*
X01015746Y0083947D01*
X01016762Y00837438D01*
X0101473Y00838454D01*
X01012698Y00837438D01*
X00823214Y00827024D02*
Y00826008D01*
X00825246D01*
Y00827024D01*
X00826262D01*
Y00829056D01*
X00825246D01*
Y00830072D01*
X00823214D01*
Y00829056D01*
X00822198D01*
Y00827024D01*
X00823214D01*
X00797814D02*
Y00826008D01*
X00799846D01*
Y00827024D01*
X00800862D01*
Y00829056D01*
X00799846D01*
Y00830072D01*
X00797814D01*
Y00829056D01*
X00796798D01*
Y00827024D01*
X00797814D01*
X00772414D02*
Y00826008D01*
X00774446D01*
Y00827024D01*
X00775462D01*
Y00829056D01*
X00774446D01*
Y00830072D01*
X00772414D01*
Y00829056D01*
X00771398D01*
Y00827024D01*
X00772414D01*
X00747014D02*
Y00826008D01*
X00749046D01*
Y00827024D01*
X00750062D01*
Y00829056D01*
X00749046D01*
Y00830072D01*
X00747014D01*
Y00829056D01*
X00745998D01*
Y00827024D01*
X00747014D01*
X00680974D02*
Y00826008D01*
X00683006D01*
Y00827024D01*
X00684022D01*
Y00829056D01*
X00683006D01*
Y00830072D01*
X00680974D01*
Y00829056D01*
X00679958D01*
Y00827024D01*
X00680974D01*
X00655574D02*
Y00826008D01*
X00657606D01*
Y00827024D01*
X00658622D01*
Y00829056D01*
X00657606D01*
Y00830072D01*
X00655574D01*
Y00829056D01*
X00654558D01*
Y00827024D01*
X00655574D01*
X00630174D02*
Y00826008D01*
X00632206D01*
Y00827024D01*
X00633222D01*
Y00829056D01*
X00632206D01*
Y00830072D01*
X00630174D01*
Y00829056D01*
X00629158D01*
Y00827024D01*
X00630174D01*
X00604774D02*
Y00826008D01*
X00606806D01*
Y00827024D01*
X00607822D01*
Y00829056D01*
X00606806D01*
Y00830072D01*
X00604774D01*
Y00829056D01*
X00603758D01*
Y00827024D01*
X00604774D01*
X00957834Y00444754D02*
Y00443738D01*
X00959866D01*
Y00444754D01*
X00960882D01*
Y00446786D01*
X00959866D01*
Y00447802D01*
X00957834D01*
Y00446786D01*
X00956818D01*
Y00444754D01*
X00957834D01*
X00932434D02*
Y00443738D01*
X00934466D01*
Y00444754D01*
X00935482D01*
Y00446786D01*
X00934466D01*
Y00447802D01*
X00932434D01*
Y00446786D01*
X00931418D01*
Y00444754D01*
X00932434D01*
X00907034D02*
Y00443738D01*
X00909066D01*
Y00444754D01*
X00910082D01*
Y00446786D01*
X00909066D01*
Y00447802D01*
X00907034D01*
Y00446786D01*
X00906018D01*
Y00444754D01*
X00907034D01*
X00881634D02*
Y00443738D01*
X00883666D01*
Y00444754D01*
X00884682D01*
Y00446786D01*
X00883666D01*
Y00447802D01*
X00881634D01*
Y00446786D01*
X00880618D01*
Y00444754D01*
X00881634D01*
X00867918Y00908558D02*
X00868934D01*
X0086995Y00909574D01*
X00870966Y00908558D01*
X00871982D01*
Y00909574D01*
X00870966Y0091059D01*
X00871982Y00911606D01*
Y00912622D01*
X00870966D01*
X0086995Y00911606D01*
X00868934Y00912622D01*
X00867918D01*
Y00911606D01*
X00868934Y0091059D01*
X00867918Y00909574D01*
Y00908558D01*
X00918718D02*
X00919734D01*
X0092075Y00909574D01*
X00921766Y00908558D01*
X00922782D01*
Y00909574D01*
X00921766Y0091059D01*
X00922782Y00911606D01*
Y00912622D01*
X00921766D01*
X0092075Y00911606D01*
X00919734Y00912622D01*
X00918718D01*
Y00911606D01*
X00919734Y0091059D01*
X00918718Y00909574D01*
Y00908558D01*
X00687578D02*
X00688594D01*
X0068961Y00909574D01*
X00690626Y00908558D01*
X00691642D01*
Y00909574D01*
X00690626Y0091059D01*
X00691642Y00911606D01*
Y00912622D01*
X00690626D01*
X0068961Y00911606D01*
X00688594Y00912622D01*
X00687578D01*
Y00911606D01*
X00688594Y0091059D01*
X00687578Y00909574D01*
Y00908558D01*
X00738378D02*
X00739394D01*
X0074041Y00909574D01*
X00741426Y00908558D01*
X00742442D01*
Y00909574D01*
X00741426Y0091059D01*
X00742442Y00911606D01*
Y00912622D01*
X00741426D01*
X0074041Y00911606D01*
X00739394Y00912622D01*
X00738378D01*
Y00911606D01*
X00739394Y0091059D01*
X00738378Y00909574D01*
Y00908558D01*
X0043307Y00265938D02*
X00434086Y00266954D01*
X00435102D01*
X00434086Y0026797D01*
X00435102Y00268986D01*
X00434086D01*
X0043307Y00270002D01*
X00432054Y00268986D01*
X00431038D01*
X00432054Y0026797D01*
X00431038Y00266954D01*
X00432054D01*
X0043307Y00265938D01*
X0045847D02*
X00459486Y00266954D01*
X00460502D01*
X00459486Y0026797D01*
X00460502Y00268986D01*
X00459486D01*
X0045847Y00270002D01*
X00457454Y00268986D01*
X00456438D01*
X00457454Y0026797D01*
X00456438Y00266954D01*
X00457454D01*
X0045847Y00265938D01*
X0048387D02*
X00484886Y00266954D01*
X00485902D01*
X00484886Y0026797D01*
X00485902Y00268986D01*
X00484886D01*
X0048387Y00270002D01*
X00482854Y00268986D01*
X00481838D01*
X00482854Y0026797D01*
X00481838Y00266954D01*
X00482854D01*
X0048387Y00265938D01*
X0050927D02*
X00510286Y00266954D01*
X00511302D01*
X00510286Y0026797D01*
X00511302Y00268986D01*
X00510286D01*
X0050927Y00270002D01*
X00508254Y00268986D01*
X00507238D01*
X00508254Y0026797D01*
X00507238Y00266954D01*
X00508254D01*
X0050927Y00265938D01*
X0053467D02*
X00535686Y00266954D01*
X00536702D01*
X00535686Y0026797D01*
X00536702Y00268986D01*
X00535686D01*
X0053467Y00270002D01*
X00533654Y00268986D01*
X00532638D01*
X00533654Y0026797D01*
X00532638Y00266954D01*
X00533654D01*
X0053467Y00265938D01*
X0056007D02*
X00561086Y00266954D01*
X00562102D01*
X00561086Y0026797D01*
X00562102Y00268986D01*
X00561086D01*
X0056007Y00270002D01*
X00559054Y00268986D01*
X00558038D01*
X00559054Y0026797D01*
X00558038Y00266954D01*
X00559054D01*
X0056007Y00265938D01*
X0058547D02*
X00586486Y00266954D01*
X00587502D01*
X00586486Y0026797D01*
X00587502Y00268986D01*
X00586486D01*
X0058547Y00270002D01*
X00584454Y00268986D01*
X00583438D01*
X00584454Y0026797D01*
X00583438Y00266954D01*
X00584454D01*
X0058547Y00265938D01*
X0038735Y00522478D02*
X00385318Y00526542D01*
X00389382D01*
X0038735Y00522478D01*
Y00471678D02*
X00385318Y00475742D01*
X00389382D01*
X0038735Y00471678D01*
Y00420878D02*
X00385318Y00424942D01*
X00389382D01*
X0038735Y00420878D01*
Y00370078D02*
X00385318Y00374142D01*
X00389382D01*
X0038735Y00370078D01*
Y00319278D02*
X00385318Y00323342D01*
X00389382D01*
X0038735Y00319278D01*
Y00293878D02*
X00385318Y00297942D01*
X00389382D01*
X0038735Y00293878D01*
Y00344678D02*
X00385318Y00348742D01*
X00389382D01*
X0038735Y00344678D01*
Y00395478D02*
X00385318Y00399542D01*
X00389382D01*
X0038735Y00395478D01*
Y00446278D02*
X00385318Y00450342D01*
X00389382D01*
X0038735Y00446278D01*
Y00497078D02*
X00385318Y00501142D01*
X00389382D01*
X0038735Y00497078D01*
Y00547878D02*
X00385318Y00551942D01*
X00389382D01*
X0038735Y00547878D01*
X0108458Y00293878D02*
X01082548Y00297942D01*
X01086612D01*
X0108458Y00293878D01*
Y00319278D02*
X01082548Y00323342D01*
X01086612D01*
X0108458Y00319278D01*
Y00344678D02*
X01082548Y00348742D01*
X01086612D01*
X0108458Y00344678D01*
Y00370078D02*
X01082548Y00374142D01*
X01086612D01*
X0108458Y00370078D01*
Y00395478D02*
X01082548Y00399542D01*
X01086612D01*
X0108458Y00395478D01*
Y00420878D02*
X01082548Y00424942D01*
X01086612D01*
X0108458Y00420878D01*
Y00446278D02*
X01082548Y00450342D01*
X01086612D01*
X0108458Y00446278D01*
Y00471678D02*
X01082548Y00475742D01*
X01086612D01*
X0108458Y00471678D01*
Y00497078D02*
X01082548Y00501142D01*
X01086612D01*
X0108458Y00497078D01*
Y00522478D02*
X01082548Y00526542D01*
X01086612D01*
X0108458Y00522478D01*
Y00547878D02*
X01082548Y00551942D01*
X01086612D01*
X0108458Y00547878D01*
X00385318Y0067945D02*
X0038735Y00681482D01*
X00389382Y0067945D01*
X0038735Y00677418D01*
X00385318Y0067945D01*
Y0070485D02*
X0038735Y00706882D01*
X00389382Y0070485D01*
X0038735Y00702818D01*
X00385318Y0070485D01*
X00437388Y00685038D02*
Y00689102D01*
X00441452D01*
Y00685038D01*
X00437388D01*
X00438404Y00686054D02*
Y00688086D01*
X00440436D01*
Y00686054D01*
X00438404D01*
X00513588Y00685038D02*
Y00689102D01*
X00517652D01*
Y00685038D01*
X00513588D01*
X00514604Y00686054D02*
Y00688086D01*
X00516636D01*
Y00686054D01*
X00514604D01*
X00385318Y0062611D02*
X0038735Y00628142D01*
X00389382Y0062611D01*
X0038735Y00624078D01*
X00385318Y0062611D01*
Y0065151D02*
X0038735Y00653542D01*
X00389382Y0065151D01*
X0038735Y00649478D01*
X00385318Y0065151D01*
X00437388Y00638048D02*
Y00642112D01*
X00441452D01*
Y00638048D01*
X00437388D01*
X00438404Y00639064D02*
Y00641096D01*
X00440436D01*
Y00639064D01*
X00438404D01*
X00513588Y00638048D02*
Y00642112D01*
X00517652D01*
Y00638048D01*
X00513588D01*
X00514604Y00639064D02*
Y00641096D01*
X00516636D01*
Y00639064D01*
X00514604D01*
X0094488Y00813308D02*
X00942848Y00817372D01*
X00946912D01*
X0094488Y00813308D01*
X0091948D02*
X00917448Y00817372D01*
X00921512D01*
X0091948Y00813308D01*
X0089408D02*
X00892048Y00817372D01*
X00896112D01*
X0089408Y00813308D01*
X0086868D02*
X00866648Y00817372D01*
X00870712D01*
X0086868Y00813308D01*
X008128Y00253238D02*
X00810768Y00257302D01*
X00814832D01*
X008128Y00253238D01*
X007874D02*
X00785368Y00257302D01*
X00789432D01*
X007874Y00253238D01*
X005334Y00892048D02*
X00531368Y00896112D01*
X00535432D01*
X005334Y00892048D01*
Y00893064D02*
X00532384Y00895096D01*
X00534416D01*
X005334Y00893064D01*
Y00866648D02*
X00531368Y00870712D01*
X00535432D01*
X005334Y00866648D01*
Y00867664D02*
X00532384Y00869696D01*
X00534416D01*
X005334Y00867664D01*
X0099695Y00475488D02*
X00997966Y00476504D01*
X00998982D01*
X00997966Y0047752D01*
X00998982Y00478536D01*
X00997966D01*
X0099695Y00479552D01*
X00995934Y00478536D01*
X00994918D01*
X00995934Y0047752D01*
X00994918Y00476504D01*
X00995934D01*
X0099695Y00475488D01*
Y00476504D02*
X00997458Y00477012D01*
X00997966D01*
X00997458Y0047752D01*
X00997966Y00478028D01*
X00997458D01*
X0099695Y00478536D01*
X00996442Y00478028D01*
X00995934D01*
X00996442Y0047752D01*
X00995934Y00477012D01*
X00996442D01*
X0099695Y00476504D01*
Y00443738D02*
X00997966Y00444754D01*
X00998982D01*
X00997966Y0044577D01*
X00998982Y00446786D01*
X00997966D01*
X0099695Y00447802D01*
X00995934Y00446786D01*
X00994918D01*
X00995934Y0044577D01*
X00994918Y00444754D01*
X00995934D01*
X0099695Y00443738D01*
Y00444754D02*
X00997458Y00445262D01*
X00997966D01*
X00997458Y0044577D01*
X00997966Y00446278D01*
X00997458D01*
X0099695Y00446786D01*
X00996442Y00446278D01*
X00995934D01*
X00996442Y0044577D01*
X00995934Y00445262D01*
X00996442D01*
X0099695Y00444754D01*
X0078994Y00704088D02*
X00790956Y00705104D01*
X00791972D01*
X00790956Y0070612D01*
X00791972Y00707136D01*
X00790956D01*
X0078994Y00708152D01*
X00788924Y00707136D01*
X00787908D01*
X00788924Y0070612D01*
X00787908Y00705104D01*
X00788924D01*
X0078994Y00704088D01*
Y00705104D02*
X00790448Y00705612D01*
X00790956D01*
X00790448Y0070612D01*
X00790956Y00706628D01*
X00790448D01*
X0078994Y00707136D01*
X00789432Y00706628D01*
X00788924D01*
X00789432Y0070612D01*
X00788924Y00705612D01*
X00789432D01*
X0078994Y00705104D01*
Y00796798D02*
X00790956Y00797814D01*
X00791972D01*
X00790956Y0079883D01*
X00791972Y00799846D01*
X00790956D01*
X0078994Y00800862D01*
X00788924Y00799846D01*
X00787908D01*
X00788924Y0079883D01*
X00787908Y00797814D01*
X00788924D01*
X0078994Y00796798D01*
Y00797814D02*
X00790448Y00798322D01*
X00790956D01*
X00790448Y0079883D01*
X00790956Y00799338D01*
X00790448D01*
X0078994Y00799846D01*
X00789432Y00799338D01*
X00788924D01*
X00789432Y0079883D01*
X00788924Y00798322D01*
X00789432D01*
X0078994Y00797814D01*
X0082169Y00306578D02*
X00822706Y00307594D01*
X00823722D01*
X00822706Y0030861D01*
X00823722Y00309626D01*
X00822706D01*
X0082169Y00310642D01*
X00820674Y00309626D01*
X00819658D01*
X00820674Y0030861D01*
X00819658Y00307594D01*
X00820674D01*
X0082169Y00306578D01*
Y00307594D02*
X00822198Y00308102D01*
X00822706D01*
X00822198Y0030861D01*
X00822706Y00309118D01*
X00822198D01*
X0082169Y00309626D01*
X00821182Y00309118D01*
X00820674D01*
X00821182Y0030861D01*
X00820674Y00308102D01*
X00821182D01*
X0082169Y00307594D01*
X0082042Y00382778D02*
X00821436Y00383794D01*
X00822452D01*
X00821436Y0038481D01*
X00822452Y00385826D01*
X00821436D01*
X0082042Y00386842D01*
X00819404Y00385826D01*
X00818388D01*
X00819404Y0038481D01*
X00818388Y00383794D01*
X00819404D01*
X0082042Y00382778D01*
Y00383794D02*
X00820928Y00384302D01*
X00821436D01*
X00820928Y0038481D01*
X00821436Y00385318D01*
X00820928D01*
X0082042Y00385826D01*
X00819912Y00385318D01*
X00819404D01*
X00819912Y0038481D01*
X00819404Y00384302D01*
X00819912D01*
X0082042Y00383794D01*
X0049276Y00848868D02*
X00493776Y00849884D01*
X00494792D01*
X00493776Y008509D01*
X00494792Y00851916D01*
X00493776D01*
X0049276Y00852932D01*
X00491744Y00851916D01*
X00490728D01*
X00491744Y008509D01*
X00490728Y00849884D01*
X00491744D01*
X0049276Y00848868D01*
Y00849884D02*
X00493268Y00850392D01*
X00493776D01*
X00493268Y008509D01*
X00493776Y00851408D01*
X00493268D01*
X0049276Y00851916D01*
X00492252Y00851408D01*
X00491744D01*
X00492252Y008509D01*
X00491744Y00850392D01*
X00492252D01*
X0049276Y00849884D01*
X0057277Y00848868D02*
X00573786Y00849884D01*
X00574802D01*
X00573786Y008509D01*
X00574802Y00851916D01*
X00573786D01*
X0057277Y00852932D01*
X00571754Y00851916D01*
X00570738D01*
X00571754Y008509D01*
X00570738Y00849884D01*
X00571754D01*
X0057277Y00848868D01*
Y00849884D02*
X00573278Y00850392D01*
X00573786D01*
X00573278Y008509D01*
X00573786Y00851408D01*
X00573278D01*
X0057277Y00851916D01*
X00572262Y00851408D01*
X00571754D01*
X00572262Y008509D01*
X00571754Y00850392D01*
X00572262D01*
X0057277Y00849884D01*
X0080264Y00732028D02*
X00803656Y00733044D01*
X00804672D01*
X00803656Y0073406D01*
X00804672Y00735076D01*
X00803656D01*
X0080264Y00736092D01*
X00801624Y00735076D01*
X00800608D01*
X00801624Y0073406D01*
X00800608Y00733044D01*
X00801624D01*
X0080264Y00732028D01*
Y00733044D02*
X00803148Y00733552D01*
X00803656D01*
X00803148Y0073406D01*
X00803656Y00734568D01*
X00803148D01*
X0080264Y00735076D01*
X00802132Y00734568D01*
X00801624D01*
X00802132Y0073406D01*
X00801624Y00733552D01*
X00802132D01*
X0080264Y00733044D01*
X008636Y00732028D02*
X00864616Y00733044D01*
X00865632D01*
X00864616Y0073406D01*
X00865632Y00735076D01*
X00864616D01*
X008636Y00736092D01*
X00862584Y00735076D01*
X00861568D01*
X00862584Y0073406D01*
X00861568Y00733044D01*
X00862584D01*
X008636Y00732028D01*
Y00733044D02*
X00864108Y00733552D01*
X00864616D01*
X00864108Y0073406D01*
X00864616Y00734568D01*
X00864108D01*
X008636Y00735076D01*
X00863092Y00734568D01*
X00862584D01*
X00863092Y0073406D01*
X00862584Y00733552D01*
X00863092D01*
X008636Y00733044D01*
D37*
X00587502Y0040005D02*
G03*
X00587502Y0040005I-00002032J0D01*
G01*
X00553212Y0039878D02*
G03*
X00553212Y0039878I-00002032J0D01*
G01*
X00587502Y0032893D02*
G03*
X00587502Y0032893I-00002032J0D01*
G01*
X00553212Y0032766D02*
G03*
X00553212Y0032766I-00002032J0D01*
G01*
X00341122Y0029591D02*
G03*
X00341122Y0029591I-00002032J0D01*
G01*
Y0034671D02*
G03*
X00341122Y0034671I-00002032J0D01*
G01*
X00626872Y0089662D02*
G03*
X00626872Y0089662I-00002032J0D01*
G01*
X00625602Y0093853D02*
G03*
X00625602Y0093853I-00002032J0D01*
G01*
X00541963Y0093726D02*
G03*
X00541963Y0093726I-00002032J0D01*
G01*
X00516926D02*
G03*
X00516926Y0093726I-00002032J0D01*
G01*
X00491889D02*
G03*
X00491889Y0093726I-00002032J0D01*
G01*
X00466852D02*
G03*
X00466852Y0093726I-00002032J0D01*
G01*
X00441815D02*
G03*
X00441815Y0093726I-00002032J0D01*
G01*
X00416778D02*
G03*
X00416778Y0093726I-00002032J0D01*
G01*
X00391741D02*
G03*
X00391741Y0093726I-00002032J0D01*
G01*
X00366703D02*
G03*
X00366703Y0093726I-00002032J0D01*
G01*
X00541963Y0081026D02*
G03*
X00541963Y0081026I-00002032J0D01*
G01*
X00516926D02*
G03*
X00516926Y0081026I-00002032J0D01*
G01*
X00491889D02*
G03*
X00491889Y0081026I-00002032J0D01*
G01*
X00466852D02*
G03*
X00466852Y0081026I-00002032J0D01*
G01*
X00441815D02*
G03*
X00441815Y0081026I-00002032J0D01*
G01*
X00416778D02*
G03*
X00416778Y0081026I-00002032J0D01*
G01*
X00391741D02*
G03*
X00391741Y0081026I-00002032J0D01*
G01*
X00366703D02*
G03*
X00366703Y0081026I-00002032J0D01*
G01*
X00964692Y00371602D02*
G03*
X00964692Y00371602I-00002032J0D01*
G01*
X00939292D02*
G03*
X00939292Y00371602I-00002032J0D01*
G01*
X00914146D02*
G03*
X00914146Y00371602I-00002032J0D01*
G01*
X00888492Y0037211D02*
G03*
X00888492Y0037211I-00002032J0D01*
G01*
X00888238Y00345948D02*
G03*
X00888238Y00345948I-00002032J0D01*
G01*
X00913765Y00346329D02*
G03*
X00913765Y00346329I-00002032J0D01*
G01*
X00939038Y00345948D02*
G03*
X00939038Y00345948I-00002032J0D01*
G01*
X00964438D02*
G03*
X00964438Y00345948I-00002032J0D01*
G01*
D38*
X00963676Y00371602D02*
G03*
X00963676Y00371602I-00001016J0D01*
G01*
X00938276D02*
G03*
X00938276Y00371602I-00001016J0D01*
G01*
X0091313D02*
G03*
X0091313Y00371602I-00001016J0D01*
G01*
X00887476Y0037211D02*
G03*
X00887476Y0037211I-00001016J0D01*
G01*
X00887222Y00345948D02*
G03*
X00887222Y00345948I-00001016J0D01*
G01*
X00912749Y00346329D02*
G03*
X00912749Y00346329I-00001016J0D01*
G01*
X00938022Y00345948D02*
G03*
X00938022Y00345948I-00001016J0D01*
G01*
X00963422D02*
G03*
X00963422Y00345948I-00001016J0D01*
G01*
M02*
