G04 Layer_Color=128*
%FSTAX44Y44*%
%MOMM*%
G71*
G01*
G75*
%ADD36C,0.0508*%
D36*
X0112169Y0023622D02*
X0115669D01*
X0113919Y0021872D02*
Y0025372D01*
X0027714Y0023622D02*
X0031214D01*
X0029464Y0021872D02*
Y0025372D01*
X0027714Y0095504D02*
X0031214D01*
X0029464Y0093754D02*
Y0097254D01*
X0112169Y0095504D02*
X0115669D01*
X0113919Y0093754D02*
Y0097254D01*
X0058166Y0040005D02*
X0058928D01*
X0058547Y0039624D02*
Y0040386D01*
X0054737Y0039878D02*
X0055499D01*
X0055118Y0039497D02*
Y0040259D01*
X0058166Y0032893D02*
X0058928D01*
X0058547Y0032512D02*
Y0033274D01*
X0054737Y0032766D02*
X0055499D01*
X0055118Y0032385D02*
Y0033147D01*
X0033528Y0029591D02*
X003429D01*
X0033909Y002921D02*
Y0029972D01*
X0033528Y0034671D02*
X003429D01*
X0033909Y003429D02*
Y0035052D01*
X0086445Y0076708D02*
X0087545D01*
X0086995Y0076158D02*
Y0077258D01*
X0088985Y0076708D02*
X0090085D01*
X0089535Y0076158D02*
Y0077258D01*
X0091525Y0076708D02*
X0092625D01*
X0092075Y0076158D02*
Y0077258D01*
X0094065Y0076708D02*
X0095165D01*
X0094615Y0076158D02*
Y0077258D01*
X0096605Y0076708D02*
X0097705D01*
X0097155Y0076158D02*
Y0077258D01*
X0099145Y0076708D02*
X0100245D01*
X0099695Y0076158D02*
Y0077258D01*
X0101685Y0076708D02*
X0102785D01*
X0102235Y0076158D02*
Y0077258D01*
X0104225Y0076708D02*
X0105325D01*
X0104775Y0076158D02*
Y0077258D01*
X0068665Y0028448D02*
X0069765D01*
X0069215Y0027898D02*
Y0028998D01*
X0071205Y0028448D02*
X0072305D01*
X0071755Y0027898D02*
Y0028998D01*
X0073745Y0028448D02*
X0074845D01*
X0074295Y0027898D02*
Y0028998D01*
X0076285Y0028448D02*
X0077385D01*
X0076835Y0027898D02*
Y0028998D01*
X0078825Y0028448D02*
X0079925D01*
X0079375Y0027898D02*
Y0028998D01*
X0081365Y0028448D02*
X0082465D01*
X0081915Y0027898D02*
Y0028998D01*
X0083905Y0028448D02*
X0085005D01*
X0084455Y0027898D02*
Y0028998D01*
X0086445Y0028448D02*
X0087545D01*
X0086995Y0027898D02*
Y0028998D01*
X0104225Y0028448D02*
X0105325D01*
X0104775Y0027898D02*
Y0028998D01*
X0101685Y0028448D02*
X0102785D01*
X0102235Y0027898D02*
Y0028998D01*
X0099145Y0028448D02*
X0100245D01*
X0099695Y0027898D02*
Y0028998D01*
X0096605Y0028448D02*
X0097705D01*
X0097155Y0027898D02*
Y0028998D01*
X0094065Y0028448D02*
X0095165D01*
X0094615Y0027898D02*
Y0028998D01*
X0091525Y0028448D02*
X0092625D01*
X0092075Y0027898D02*
Y0028998D01*
X0064601Y0076708D02*
X0065701D01*
X0065151Y0076158D02*
Y0077258D01*
X0082381Y0076708D02*
X0083481D01*
X0082931Y0076158D02*
Y0077258D01*
X0079841Y0076708D02*
X0080941D01*
X0080391Y0076158D02*
Y0077258D01*
X0077301Y0076708D02*
X0078401D01*
X0077851Y0076158D02*
Y0077258D01*
X0074761Y0076708D02*
X0075861D01*
X0075311Y0076158D02*
Y0077258D01*
X0072221Y0076708D02*
X0073321D01*
X0072771Y0076158D02*
Y0077258D01*
X0069681Y0076708D02*
X0070781D01*
X0070231Y0076158D02*
Y0077258D01*
X0067141Y0076708D02*
X0068241D01*
X0067691Y0076158D02*
Y0077258D01*
X0062061Y0076708D02*
X0063161D01*
X0062611Y0076158D02*
Y0077258D01*
X0059521Y0076708D02*
X0060621D01*
X0060071Y0076158D02*
Y0077258D01*
X0062103Y0089662D02*
X0062865D01*
X0062484Y0089281D02*
Y0090043D01*
X0061976Y0093853D02*
X0062738D01*
X0062357Y0093472D02*
Y0094234D01*
X0048639Y00762D02*
X0049659D01*
X0049149Y007569D02*
Y007671D01*
X0046099Y00762D02*
X0047119D01*
X0046609Y007569D02*
Y007671D01*
X0043559Y00762D02*
X0044579D01*
X0044069Y007569D02*
Y007671D01*
X0041019Y00762D02*
X0042039D01*
X0041529Y007569D02*
Y007671D01*
X0105918Y0081407D02*
X0107188D01*
X0106553Y0080772D02*
Y0082042D01*
X0105918Y0087757D02*
X0107188D01*
X0106553Y0087122D02*
Y0088392D01*
X0100838Y0083947D02*
X0102108D01*
X0101473Y0083312D02*
Y0084582D01*
X00819912Y0082804D02*
X00828548D01*
X0082423Y00823722D02*
Y00832358D01*
X00794512Y0082804D02*
X00803148D01*
X0079883Y00823722D02*
Y00832358D01*
X00769112Y0082804D02*
X00777748D01*
X0077343Y00823722D02*
Y00832358D01*
X00743712Y0082804D02*
X00752348D01*
X0074803Y00823722D02*
Y00832358D01*
X00677672Y0082804D02*
X00686308D01*
X0068199Y00823722D02*
Y00832358D01*
X00652272Y0082804D02*
X00660908D01*
X0065659Y00823722D02*
Y00832358D01*
X00626872Y0082804D02*
X00635508D01*
X0063119Y00823722D02*
Y00832358D01*
X00601472Y0082804D02*
X00610108D01*
X0060579Y00823722D02*
Y00832358D01*
X00954532Y0044577D02*
X00963168D01*
X0095885Y00441452D02*
Y00450088D01*
X00929132Y0044577D02*
X00937768D01*
X0093345Y00441452D02*
Y00450088D01*
X00903732Y0044577D02*
X00912368D01*
X0090805Y00441452D02*
Y00450088D01*
X00878332Y0044577D02*
X00886968D01*
X0088265Y00441452D02*
Y00450088D01*
X00536121Y0093726D02*
X00543741D01*
X00539931Y0093345D02*
Y0094107D01*
X00511084Y0093726D02*
X00518704D01*
X00514894Y0093345D02*
Y0094107D01*
X00486047Y0093726D02*
X00493667D01*
X00489857Y0093345D02*
Y0094107D01*
X0046101Y0093726D02*
X0046863D01*
X0046482Y0093345D02*
Y0094107D01*
X00435973Y0093726D02*
X00443593D01*
X00439783Y0093345D02*
Y0094107D01*
X00410936Y0093726D02*
X00418556D01*
X00414746Y0093345D02*
Y0094107D01*
X00385899Y0093726D02*
X00393519D01*
X00389709Y0093345D02*
Y0094107D01*
X00360862Y0093726D02*
X00368481D01*
X00364672Y0093345D02*
Y0094107D01*
X00536121Y0081026D02*
X00543741D01*
X00539931Y0080645D02*
Y0081407D01*
X00511084Y0081026D02*
X00518704D01*
X00514894Y0080645D02*
Y0081407D01*
X00486047Y0081026D02*
X00493667D01*
X00489857Y0080645D02*
Y0081407D01*
X0046101Y0081026D02*
X0046863D01*
X0046482Y0080645D02*
Y0081407D01*
X00435973Y0081026D02*
X00443593D01*
X00439783Y0080645D02*
Y0081407D01*
X00410936Y0081026D02*
X00418556D01*
X00414746Y0080645D02*
Y0081407D01*
X00385899Y0081026D02*
X00393519D01*
X00389709Y0080645D02*
Y0081407D01*
X00360862Y0081026D02*
X00368481D01*
X00364672Y0080645D02*
Y0081407D01*
X0086345Y0091059D02*
X0087645D01*
X0086995Y0090409D02*
Y0091709D01*
X0091425Y0091059D02*
X0092725D01*
X0092075Y0090409D02*
Y0091709D01*
X0068311Y0091059D02*
X0069611D01*
X0068961Y0090409D02*
Y0091709D01*
X0073391Y0091059D02*
X0074691D01*
X0074041Y0090409D02*
Y0091709D01*
X0042797Y0026797D02*
X0043817D01*
X0043307Y0026287D02*
Y0027307D01*
X0045337Y0026797D02*
X0046357D01*
X0045847Y0026287D02*
Y0027307D01*
X0047877Y0026797D02*
X0048897D01*
X0048387Y0026287D02*
Y0027307D01*
X0050417Y0026797D02*
X0051437D01*
X0050927Y0026287D02*
Y0027307D01*
X0052957Y0026797D02*
X0053977D01*
X0053467Y0026287D02*
Y0027307D01*
X0055497Y0026797D02*
X0056517D01*
X0056007Y0026287D02*
Y0027307D01*
X0058037Y0026797D02*
X0059057D01*
X0058547Y0026287D02*
Y0027307D01*
X0038185Y0052451D02*
X0039285D01*
X0038735Y0051901D02*
Y0053001D01*
X0038185Y0047371D02*
X0039285D01*
X0038735Y0046821D02*
Y0047921D01*
X0038185Y0042291D02*
X0039285D01*
X0038735Y0041741D02*
Y0042841D01*
X0038185Y0037211D02*
X0039285D01*
X0038735Y0036661D02*
Y0037761D01*
X0038185Y0032131D02*
X0039285D01*
X0038735Y0031581D02*
Y0032681D01*
X0038185Y0029591D02*
X0039285D01*
X0038735Y0029041D02*
Y0030141D01*
X0038185Y0034671D02*
X0039285D01*
X0038735Y0034121D02*
Y0035221D01*
X0038185Y0039751D02*
X0039285D01*
X0038735Y0039201D02*
Y0040301D01*
X0038185Y0044831D02*
X0039285D01*
X0038735Y0044281D02*
Y0045381D01*
X0038185Y0049911D02*
X0039285D01*
X0038735Y0049361D02*
Y0050461D01*
X0038185Y0054991D02*
X0039285D01*
X0038735Y0054441D02*
Y0055541D01*
X0107908Y0029591D02*
X0109008D01*
X0108458Y0029041D02*
Y0030141D01*
X0107908Y0032131D02*
X0109008D01*
X0108458Y0031581D02*
Y0032681D01*
X0107908Y0034671D02*
X0109008D01*
X0108458Y0034121D02*
Y0035221D01*
X0107908Y0037211D02*
X0109008D01*
X0108458Y0036661D02*
Y0037761D01*
X0107908Y0039751D02*
X0109008D01*
X0108458Y0039201D02*
Y0040301D01*
X0107908Y0042291D02*
X0109008D01*
X0108458Y0041741D02*
Y0042841D01*
X0107908Y0044831D02*
X0109008D01*
X0108458Y0044281D02*
Y0045381D01*
X0107908Y0047371D02*
X0109008D01*
X0108458Y0046821D02*
Y0047921D01*
X0107908Y0049911D02*
X0109008D01*
X0108458Y0049361D02*
Y0050461D01*
X0107908Y0052451D02*
X0109008D01*
X0108458Y0051901D02*
Y0053001D01*
X0107908Y0054991D02*
X0109008D01*
X0108458Y0054441D02*
Y0055541D01*
X0038227Y0067945D02*
X0039243D01*
X0038735Y0067437D02*
Y0068453D01*
X0038227Y0070485D02*
X0039243D01*
X0038735Y0069977D02*
Y0070993D01*
X00434975Y0068707D02*
X00443865D01*
X0043942Y00682625D02*
Y00691515D01*
X00511175Y0068707D02*
X00520065D01*
X0051562Y00682625D02*
Y00691515D01*
X0038227Y0062611D02*
X0039243D01*
X0038735Y0062103D02*
Y0063119D01*
X0038227Y0065151D02*
X0039243D01*
X0038735Y0064643D02*
Y0065659D01*
X00434975Y0064008D02*
X00443865D01*
X0043942Y00635635D02*
Y00644525D01*
X00511175Y0064008D02*
X00520065D01*
X0051562Y00635635D02*
Y00644525D01*
X0093938Y0081534D02*
X0095038D01*
X0094488Y0080984D02*
Y0082084D01*
X0091398Y0081534D02*
X0092498D01*
X0091948Y0080984D02*
Y0082084D01*
X0088858Y0081534D02*
X0089958D01*
X0089408Y0080984D02*
Y0082084D01*
X0086318Y0081534D02*
X0087418D01*
X0086868Y0080984D02*
Y0082084D01*
X008073Y0025527D02*
X008183D01*
X008128Y0024977D02*
Y0026077D01*
X007819Y0025527D02*
X007929D01*
X007874Y0024977D02*
Y0026077D01*
X00958088Y00371602D02*
X00967232D01*
X0096266Y0036703D02*
Y00376174D01*
X00932688Y00371602D02*
X00941832D01*
X0093726Y0036703D02*
Y00376174D01*
X00907542Y00371602D02*
X00916686D01*
X00912114Y0036703D02*
Y00376174D01*
X00881888Y0037211D02*
X00891032D01*
X0088646Y00367538D02*
Y00376682D01*
X00881634Y00345948D02*
X00890778D01*
X00886206Y00341376D02*
Y0035052D01*
X00907161Y00346329D02*
X00916305D01*
X00911733Y00341757D02*
Y00350901D01*
X00932434Y00345948D02*
X00941578D01*
X00937006Y00341376D02*
Y0035052D01*
X00957834Y00345948D02*
X00966978D01*
X00962406Y00341376D02*
Y0035052D01*
X005304Y0089408D02*
X005364D01*
X005334Y0089108D02*
Y0089708D01*
X005304Y0086868D02*
X005364D01*
X005334Y0086568D02*
Y0087168D01*
X00993394Y0047752D02*
X01000506D01*
X0099695Y00473964D02*
Y00481076D01*
X00993394Y0044577D02*
X01000506D01*
X0099695Y00442214D02*
Y00449326D01*
X00786384Y0070612D02*
X00793496D01*
X0078994Y00702564D02*
Y00709676D01*
X00786384Y0079883D02*
X00793496D01*
X0078994Y00795274D02*
Y00802386D01*
X00818134Y0030861D02*
X00825246D01*
X0082169Y00305054D02*
Y00312166D01*
X00816864Y0038481D02*
X00823976D01*
X0082042Y00381254D02*
Y00388366D01*
X00489204Y008509D02*
X00496316D01*
X0049276Y00847344D02*
Y00854456D01*
X00569214Y008509D02*
X00576326D01*
X0057277Y00847344D02*
Y00854456D01*
X00799084Y0073406D02*
X00806196D01*
X0080264Y00730504D02*
Y00737616D01*
X00860044Y0073406D02*
X00867156D01*
X008636Y00730504D02*
Y00737616D01*
M02*
