G04 Layer_Color=255*
%FSLAX44Y44*%
%MOMM*%
G71*
G01*
G75*
%ADD13C,2.0000*%
%ADD14R,1.6000X1.6000*%
%ADD15C,1.6000*%
%ADD16R,3.0000X3.0000*%
%ADD17C,3.0000*%
%ADD18C,1.5200*%
%ADD19R,1.5200X1.5200*%
%ADD20O,4.0640X2.5400*%
%ADD21O,2.5400X4.0640*%
%ADD22O,1.9050X2.2860*%
%ADD23R,1.9050X2.2860*%
%ADD24C,1.5240*%
%ADD25R,2.5000X2.5000*%
%ADD26R,1.6000X1.6000*%
%ADD27P,1.7870X8X112.5*%
%ADD28C,1.6510*%
%ADD29C,2.1590*%
%ADD30O,1.5240X2.1844*%
%ADD31R,1.5240X2.1844*%
%ADD32O,1.8000X1.5000*%
%ADD33R,1.5800X1.5000*%
D13*
X267970Y157480D02*
D03*
X233680Y156210D02*
D03*
X267970Y86360D02*
D03*
X233680Y85090D02*
D03*
X21590Y53340D02*
D03*
Y104140D02*
D03*
D14*
X552450Y524510D02*
D03*
Y41910D02*
D03*
X730250D02*
D03*
X283210Y524510D02*
D03*
X551180Y572770D02*
D03*
X495300Y12700D02*
D03*
D15*
X577850Y524510D02*
D03*
X603250D02*
D03*
X628650D02*
D03*
X654050D02*
D03*
X679450D02*
D03*
X704850D02*
D03*
X730250D02*
D03*
X374650Y41910D02*
D03*
X400050D02*
D03*
X425450D02*
D03*
X450850D02*
D03*
X476250D02*
D03*
X501650D02*
D03*
X527050D02*
D03*
X704850D02*
D03*
X679450D02*
D03*
X654050D02*
D03*
X628650D02*
D03*
X603250D02*
D03*
X334010Y524510D02*
D03*
X511810D02*
D03*
X486410D02*
D03*
X461010D02*
D03*
X435610D02*
D03*
X410210D02*
D03*
X384810D02*
D03*
X359410D02*
D03*
X308610D02*
D03*
X69850Y53340D02*
D03*
Y104140D02*
D03*
Y154940D02*
D03*
Y205740D02*
D03*
Y256540D02*
D03*
Y307340D02*
D03*
X767080Y53340D02*
D03*
Y104140D02*
D03*
Y154940D02*
D03*
Y205740D02*
D03*
Y256540D02*
D03*
Y307340D02*
D03*
X627380Y572770D02*
D03*
X601980D02*
D03*
X576580D02*
D03*
X469900Y12700D02*
D03*
D16*
X307340Y654050D02*
D03*
D17*
X306070Y695960D02*
D03*
D18*
X173990Y519430D02*
D03*
X148590D02*
D03*
X123190D02*
D03*
X140970Y25400D02*
D03*
X166370D02*
D03*
X191770D02*
D03*
X217170D02*
D03*
X242570D02*
D03*
X267970D02*
D03*
D19*
X97790Y519430D02*
D03*
X115570Y25400D02*
D03*
D20*
X748030Y571500D02*
D03*
Y635000D02*
D03*
D21*
X697230Y596900D02*
D03*
D22*
X506730Y585470D02*
D03*
X481330D02*
D03*
X455930D02*
D03*
X364490D02*
D03*
X339090D02*
D03*
X313690D02*
D03*
X641350Y203200D02*
D03*
X615950D02*
D03*
X590550D02*
D03*
D23*
X430530Y585470D02*
D03*
X288290D02*
D03*
X565150Y203200D02*
D03*
D24*
X222431Y694690D02*
D03*
X197394D02*
D03*
X172357D02*
D03*
X147320D02*
D03*
X122283D02*
D03*
X97246D02*
D03*
X72209D02*
D03*
X47172D02*
D03*
X222431Y567690D02*
D03*
X197394D02*
D03*
X172357D02*
D03*
X147320D02*
D03*
X122283D02*
D03*
X97246D02*
D03*
X72209D02*
D03*
X47172D02*
D03*
D25*
X552450Y668020D02*
D03*
X603250D02*
D03*
X372110D02*
D03*
X422910D02*
D03*
D26*
X69850Y281940D02*
D03*
Y231140D02*
D03*
Y180340D02*
D03*
Y129540D02*
D03*
Y78740D02*
D03*
X767080D02*
D03*
Y129540D02*
D03*
Y180340D02*
D03*
Y231140D02*
D03*
Y281940D02*
D03*
D27*
X69850Y436880D02*
D03*
Y383540D02*
D03*
D28*
Y462280D02*
D03*
Y408940D02*
D03*
D29*
X121920Y444500D02*
D03*
X198120D02*
D03*
X121920Y397510D02*
D03*
X198120D02*
D03*
D30*
X645160Y129032D02*
D03*
X619760D02*
D03*
X594614D02*
D03*
X568960Y129540D02*
D03*
X568706Y103378D02*
D03*
X594233Y103759D02*
D03*
X619506Y103378D02*
D03*
D31*
X644906D02*
D03*
D32*
X215900Y651510D02*
D03*
D33*
Y626110D02*
D03*
M02*
