G04 Layer_Physical_Order=2*
G04 Layer_Color=16711680*
%FSTAX44Y44*%
%MOMM*%
G71*
G01*
G75*
%ADD10C,0.4000*%
%ADD11C,0.5000*%
%ADD12C,1.0000*%
%ADD13C,2.0000*%
%ADD14C,3.0000*%
%ADD15C,2.0000*%
%ADD16R,1.6000X1.6000*%
%ADD17C,1.6000*%
%ADD18R,3.0000X3.0000*%
%ADD19C,1.5200*%
%ADD20R,1.5200X1.5200*%
%ADD21O,4.0640X2.5400*%
%ADD22O,2.5400X4.0640*%
%ADD23O,1.9050X2.2860*%
%ADD24R,1.9050X2.2860*%
%ADD25C,1.5240*%
%ADD26R,2.5000X2.5000*%
%ADD27R,1.6000X1.6000*%
%ADD28P,1.7870X8X112.5*%
%ADD29C,1.6510*%
%ADD30C,2.1590*%
%ADD31O,1.5240X2.1844*%
%ADD32R,1.5240X2.1844*%
%ADD33O,1.8000X1.5000*%
%ADD34R,1.5800X1.5000*%
%ADD35C,1.2700*%
G36*
X0048304Y00518333D02*
Y00512334D01*
X00411381Y00440675D01*
X00404855Y0044122D01*
X00404249Y00442071D01*
X00406833Y0044831D01*
X00406731Y00448557D01*
X00478421Y00520247D01*
X0048304Y00518333D01*
D02*
G37*
G36*
X0099485Y00428943D02*
Y0042291D01*
X00998813Y00413343D01*
X01065199Y00346957D01*
X01065097Y0034671D01*
X01069104Y00337037D01*
X01068926Y00336964D01*
X01065756Y0032931D01*
Y003196D01*
X01034304D01*
X0101937Y00334534D01*
Y003683D01*
X0101937Y003683D01*
X01015407Y00377867D01*
X00991277Y00401997D01*
X0098171Y0040596D01*
X00941851D01*
X00940671Y00410118D01*
X00940634Y0041096D01*
X00943017Y00413343D01*
X00943017Y00413343D01*
X00946742Y00422335D01*
X00947917Y00423774D01*
X00951137Y00425926D01*
X0095885Y00422731D01*
X00973794Y00428921D01*
X00975169Y0043224D01*
X00986889D01*
X0099485Y00428943D01*
D02*
G37*
G36*
X0057194Y0061129D02*
Y00419787D01*
X0056694Y0041717D01*
X0056471Y00418717D01*
Y00612083D01*
X0056694Y00613774D01*
X0057194Y0061129D01*
D02*
G37*
G36*
X004678Y00553893D02*
Y00547894D01*
X00411381Y00491475D01*
X00404855Y0049202D01*
X00404249Y00492871D01*
X00406833Y0049911D01*
X00406731Y00499357D01*
X00463181Y00555807D01*
X004678Y00553893D01*
D02*
G37*
G36*
X0085007Y00723999D02*
Y0056896D01*
X00854033Y00559393D01*
X00931727Y00481699D01*
X00929813Y0047708D01*
X00916194D01*
X0084284Y00550434D01*
Y00728389D01*
X0084784Y00729384D01*
X0085007Y00723999D01*
D02*
G37*
G36*
X0081578Y00716394D02*
Y0054483D01*
X00819743Y00535263D01*
X00882363Y00472643D01*
X00880449Y00468024D01*
X00873125D01*
X00865471Y00464854D01*
X00863171Y004593D01*
X00842534D01*
X0080347Y00498364D01*
Y00696059D01*
X00807637Y0070612D01*
X00803284Y0071663D01*
X0081078Y00719735D01*
X0081578Y00716394D01*
D02*
G37*
G36*
X0077641Y00690515D02*
Y0049276D01*
X00780373Y00483193D01*
X00827363Y00436203D01*
X0083693Y0043224D01*
X00863171D01*
X00865471Y00426686D01*
X00869893Y00424855D01*
X00873083Y00417153D01*
X00879433Y00410803D01*
X00879433Y00410803D01*
X00889Y0040684D01*
X00898584D01*
Y00394874D01*
X00894033Y00391347D01*
X0088646Y00394484D01*
X00872974Y00388898D01*
X00871625Y0038564D01*
X0084455D01*
X00839415Y00383513D01*
X00838117Y0038481D01*
X00832934Y00397324D01*
X0082042Y00402507D01*
X00810359Y0039834D01*
X0060826D01*
X00607118Y0040005D01*
X00600777Y00415357D01*
X00599Y00416094D01*
Y00611616D01*
X00654574Y0066719D01*
X0074041D01*
X00749977Y00671153D01*
X0077141Y00692586D01*
X0077641Y00690515D01*
D02*
G37*
G36*
X00892356Y00306971D02*
X00885544Y00300158D01*
X0087795Y00303304D01*
X0086195D01*
X00854296Y00300134D01*
X00854223Y00299956D01*
X0084455Y00303963D01*
X0084203Y00302919D01*
X00838494Y00306455D01*
X00839387Y0030861D01*
X00841378Y0031159D01*
X00890443D01*
X00892356Y00306971D01*
D02*
G37*
G36*
X00481766Y0036628D02*
X00450173Y00334687D01*
X0044621Y0032512D01*
Y00288599D01*
X00442053Y00285821D01*
X0044067Y00286394D01*
X0042547D01*
X00422817Y00285295D01*
X0041866Y00288073D01*
Y0033782D01*
X0041866Y0033782D01*
X0041866Y0033782D01*
Y00353806D01*
X00436134Y0037128D01*
X00479695D01*
X00481766Y0036628D01*
D02*
G37*
G36*
X00323783Y00280603D02*
X0033909Y00274262D01*
X00352156Y00279674D01*
X00379511D01*
X0038735Y00276427D01*
X00387443Y00276465D01*
X003916Y00273687D01*
Y0025781D01*
X00395316Y0024884D01*
X00393433Y0024384D01*
X003175D01*
Y00282956D01*
X00322404Y00283931D01*
X00323783Y00280603D01*
D02*
G37*
G36*
X01050883Y00438743D02*
X01050883Y00438743D01*
X0106045Y0043478D01*
X0106045Y0043478D01*
X0106317D01*
X01065756Y0043091D01*
Y0041491D01*
X01068926Y00407256D01*
X01069104Y00407183D01*
X01065097Y0039751D01*
X01067681Y00391272D01*
X01067075Y0039042D01*
X01060549Y00389875D01*
X0102191Y00428514D01*
Y0045593D01*
X01021507Y00456903D01*
X01024675Y00461984D01*
X01027425Y00462201D01*
X01050883Y00438743D01*
D02*
G37*
G36*
X00323783Y00331403D02*
X0033909Y00325062D01*
X00354397Y00331403D01*
X00355134Y0033318D01*
X0036594D01*
X00368526Y0032931D01*
Y0031331D01*
X00367748Y00312146D01*
X00352156D01*
X0033909Y00317558D01*
X00323783Y00311217D01*
X00322404Y00307889D01*
X003175Y00308864D01*
Y00333756D01*
X00322404Y00334731D01*
X00323783Y00331403D01*
D02*
G37*
G36*
X00795074Y00327799D02*
X00784183Y00316907D01*
X0078022Y0030734D01*
Y00303546D01*
X00776063Y00300768D01*
X0076835Y00303963D01*
X0075565Y00298703D01*
X0074295Y00303963D01*
X0073025Y00298703D01*
X0071755Y00303963D01*
X0070485Y00298703D01*
X0069215Y00303963D01*
X00678373Y00298257D01*
X00672667Y0028448D01*
X00677091Y002738D01*
X0067375Y002688D01*
X00632984D01*
X00607737Y00294047D01*
X0059817Y0029801D01*
X00595995D01*
X00593924Y0030301D01*
X00595037Y00304123D01*
X00598598Y0031272D01*
X00600777Y00313623D01*
X00607118Y0032893D01*
X00609449Y00332418D01*
X00793161D01*
X00795074Y00327799D01*
D02*
G37*
G36*
X0045383Y00590723D02*
Y00584724D01*
X00411381Y00542275D01*
X00404855Y0054282D01*
X00404249Y00543671D01*
X00406833Y0054991D01*
X00406731Y00550157D01*
X00449211Y00592637D01*
X0045383Y00590723D01*
D02*
G37*
G36*
X0040079Y0086158D02*
X00398103Y00860467D01*
X00398103Y00860467D01*
X00383201Y00845565D01*
X00378201Y00847637D01*
Y00863257D01*
X00381524Y0086658D01*
X00399795D01*
X0040079Y0086158D01*
D02*
G37*
G36*
X00868613Y00852103D02*
X0088392Y00845762D01*
X0088392Y00845762D01*
X00938453D01*
X00944773Y00839442D01*
X00943071Y00834074D01*
X0093218Y00829563D01*
X0091948Y00834823D01*
X0090678Y00829563D01*
X0089408Y00834823D01*
X00884407Y00830816D01*
X00884334Y00830994D01*
X0087668Y00834164D01*
X0086068D01*
X0085681Y0083675D01*
Y0083947D01*
X00853118Y00848382D01*
X00855035Y00853382D01*
X00867333D01*
X00868613Y00852103D01*
D02*
G37*
G36*
X00490953Y00833951D02*
X00489449Y00829163D01*
X00477339Y00824146D01*
X0046482Y00829332D01*
X00452301Y00824146D01*
X00439783Y00829332D01*
X00427264Y00824146D01*
X00414746Y00829332D01*
X00410583Y00827607D01*
X0040775Y00831846D01*
X00413274Y0083737D01*
X004827D01*
X00490953Y00833951D01*
D02*
G37*
G36*
X00602153Y00952153D02*
X0059651Y0093853D01*
X0060415Y00920087D01*
X00602186Y00919274D01*
X0060019Y00914454D01*
X0059519Y00915448D01*
Y0091567D01*
X00591227Y00925237D01*
X00583607Y00932857D01*
X0057404Y0093682D01*
X00559297D01*
X00559003Y0093726D01*
X00553417Y00950746D01*
X00551823Y00951406D01*
X00552799Y0095631D01*
X00599375D01*
X00602153Y00952153D01*
D02*
G37*
G36*
X00846626Y00910136D02*
X00845762Y0090805D01*
X00845762Y0090805D01*
Y00896678D01*
X00764678D01*
X00763734Y0089809D01*
Y00916882D01*
X00846626D01*
Y00910136D01*
D02*
G37*
G36*
X0110998Y0024638D02*
X011049Y002413D01*
X0110236Y0024384D01*
X00898695D01*
X00896624Y0024884D01*
X00903647Y00255863D01*
X00903647Y00255863D01*
X0090761Y0026543D01*
Y0026594D01*
X00911767Y00268718D01*
X0092075Y00264997D01*
X0093345Y00270257D01*
X0094615Y00264997D01*
X0095885Y00270257D01*
X0097155Y00264997D01*
X0098425Y00270257D01*
X0099695Y00264997D01*
X0100965Y00270257D01*
X0102235Y00264997D01*
X01032023Y00269004D01*
X01032096Y00268826D01*
X0103975Y00265656D01*
X0105575D01*
X01063404Y00268826D01*
X01066574Y0027648D01*
Y0027983D01*
X01071574Y00281814D01*
X0108458Y00276427D01*
X01098357Y00282133D01*
X01104063Y0029591D01*
X01100056Y00305583D01*
X01100234Y00305656D01*
X01103404Y0031331D01*
Y0032931D01*
X01100234Y00336964D01*
X01100056Y00337037D01*
X01104063Y0034671D01*
X01100056Y00356383D01*
X01100234Y00356456D01*
X01103404Y0036411D01*
Y0038011D01*
X01100234Y00387764D01*
X01100056Y00387837D01*
X01104063Y0039751D01*
X01100056Y00407183D01*
X01100234Y00407256D01*
X01103404Y0041491D01*
Y0043091D01*
X01100234Y00438564D01*
X01100056Y00438637D01*
X01104063Y0044831D01*
X01100056Y00457983D01*
X01100234Y00458056D01*
X01103404Y0046571D01*
Y0048171D01*
X01100234Y00489364D01*
X01100056Y00489437D01*
X01104063Y0049911D01*
X01100056Y00508783D01*
X01100234Y00508856D01*
X01103404Y0051651D01*
Y0053251D01*
X01100234Y00540164D01*
X01100056Y00540237D01*
X01104063Y0054991D01*
X01098357Y00563687D01*
X0108458Y00569393D01*
X01070803Y00563687D01*
X01065097Y0054991D01*
X01069104Y00540237D01*
X01068926Y00540164D01*
X01065756Y0053251D01*
Y0051651D01*
X01068926Y00508856D01*
X01069104Y00508783D01*
X01065097Y0049911D01*
X01069104Y00489437D01*
X01068926Y00489364D01*
X01065756Y0048171D01*
Y00469209D01*
X01060756Y00467138D01*
X01040807Y00487087D01*
X0103124Y0049105D01*
X0100701D01*
X0099695Y00495217D01*
X00986889Y0049105D01*
X00960644D01*
X0087713Y00574564D01*
Y00723999D01*
X00881297Y0073406D01*
X00877488Y00743256D01*
X00877567Y0074411D01*
X00880081Y00749139D01*
X00885604Y00751426D01*
X00885677Y00751604D01*
X0089535Y00747597D01*
X0090805Y00752857D01*
X0092075Y00747597D01*
X0093345Y00752857D01*
X0094615Y00747597D01*
X0095885Y00752857D01*
X0097155Y00747597D01*
X0098425Y00752857D01*
X0099695Y00747597D01*
X0100965Y00752857D01*
X0102235Y00747597D01*
X0103505Y00752857D01*
X0104775Y00747597D01*
X01061527Y00753303D01*
X01067233Y0076708D01*
X01061527Y00780857D01*
X01062386Y00785912D01*
X01071047Y007895D01*
X0107315D01*
X01090524Y00796696D01*
X0109772Y0081407D01*
X01090524Y00831444D01*
X0107315Y0083864D01*
X0105791D01*
X010443Y00833003D01*
X010393Y00836344D01*
Y0084709D01*
X01032104Y00864464D01*
X0101473Y0087166D01*
X00997356Y00864464D01*
X00993968Y00856283D01*
X00988556D01*
X00988127Y00857317D01*
X00988127Y00857317D01*
X00962727Y00882717D01*
X0094742Y00889058D01*
X0094742Y00889058D01*
X00945745D01*
X00942404Y00894058D01*
X00944074Y0089809D01*
Y00914729D01*
X00946227Y00916882D01*
X00995603D01*
X01033801Y00878684D01*
X0103334Y0087757D01*
X01040536Y00860196D01*
X0105791Y00853D01*
X0107315D01*
X01090524Y00860196D01*
X0109772Y0087757D01*
X01090524Y00894944D01*
X0107315Y0090214D01*
X01071574D01*
X01022405Y0095131D01*
X01024476Y0095631D01*
X0110998D01*
Y0024638D01*
D02*
G37*
G36*
X00730851Y00808956D02*
X00738505Y00805786D01*
X00740249D01*
X00741009Y0080466D01*
X0073835Y0079966D01*
X00689437D01*
X00687523Y00804279D01*
X00691557Y00808313D01*
X00691883Y00809099D01*
X00696934Y00811191D01*
X00698308Y0081451D01*
X00728551D01*
X00730851Y00808956D01*
D02*
G37*
G36*
X0043249Y0066513D02*
X00431085Y00659136D01*
X00423504Y00655996D01*
X00416912Y0064008D01*
X00416618Y0063964D01*
X00406692D01*
X00403914Y00643797D01*
X00407109Y0065151D01*
X00403211Y0066092D01*
X00406552Y0066592D01*
X004318D01*
X0043249Y0066513D01*
D02*
G37*
G36*
X00620577Y00708291D02*
X00541613Y00629327D01*
X0053765Y0061976D01*
Y00414824D01*
X00535873Y00414087D01*
X00529532Y0039878D01*
X00529238Y0039834D01*
X0043053D01*
X0043053Y0039834D01*
X00420963Y00394377D01*
X00420963Y00394377D01*
X00410597Y00384011D01*
X00405693Y0038487D01*
X00403427Y00389286D01*
X00406833Y0039751D01*
X00406731Y00397757D01*
X00506137Y00497163D01*
X00506137Y00497163D01*
X005101Y0050673D01*
Y00615358D01*
X00514257Y00618136D01*
X0051562Y00617572D01*
X00531536Y00624164D01*
X00538128Y0064008D01*
X0053714Y00642466D01*
X00607584Y0071291D01*
X00618663D01*
X00620577Y00708291D01*
D02*
G37*
G36*
X0035278Y00951406D02*
X00351186Y00950746D01*
X003456Y0093726D01*
X00351186Y00923774D01*
X0035207Y00923408D01*
X00355104Y00916081D01*
X00368893Y00902293D01*
X00368893Y00902293D01*
X0037846Y0089833D01*
X00377712Y0089364D01*
X0037592D01*
X00366353Y00889677D01*
X00355104Y00878428D01*
X00351142Y00868861D01*
Y00823639D01*
X003456Y0081026D01*
X00351142Y00796881D01*
Y00727529D01*
Y00674189D01*
X00355104Y00664622D01*
X00367774Y00651952D01*
X00367591Y0065151D01*
X00372707Y00639157D01*
X00371441Y00637891D01*
X00368271Y00630238D01*
X00368271Y00630237D01*
Y00621982D01*
X00371441Y00614329D01*
X00375569Y00610201D01*
X00383223Y00607031D01*
X00383223Y00607031D01*
X00391478D01*
X00399131Y00610201D01*
X0040151Y0061258D01*
X00423815D01*
X00426194Y00607888D01*
X00387597Y00569291D01*
X0038735Y00569393D01*
X00373573Y00563687D01*
X00367867Y0054991D01*
X00371874Y00540237D01*
X00371696Y00540164D01*
X00368526Y0053251D01*
Y0051651D01*
X00371696Y00508856D01*
X00371874Y00508783D01*
X00367867Y0049911D01*
X00371874Y00489437D01*
X00371696Y00489364D01*
X00368526Y0048171D01*
Y0046571D01*
X00371696Y00458056D01*
X00371874Y00457983D01*
X00367867Y0044831D01*
X00371874Y00438637D01*
X00371696Y00438564D01*
X00368526Y0043091D01*
Y0041491D01*
X00371696Y00407256D01*
X00371874Y00407183D01*
X00367867Y0039751D01*
X00371874Y00387837D01*
X00371696Y00387764D01*
X00368526Y0038011D01*
Y0036411D01*
X0036594Y0036024D01*
X00355134D01*
X00354397Y00362017D01*
X0033909Y00368358D01*
X00323783Y00362017D01*
X00322404Y00358689D01*
X003175Y00359664D01*
Y0095631D01*
X00351804D01*
X0035278Y00951406D01*
D02*
G37*
G36*
X00588611Y00808956D02*
X00593033Y00807125D01*
X00596223Y00799423D01*
X00604742Y00790904D01*
X00602671Y00785904D01*
X0059271D01*
X00585056Y00782734D01*
X00581886Y0077508D01*
Y0076537D01*
X00558054D01*
X00536033Y00787391D01*
X00538866Y0079163D01*
X00539931Y00791188D01*
X00553417Y00796774D01*
X00559003Y0081026D01*
X00558894Y00810523D01*
X00562655Y0081451D01*
X00586311D01*
X00588611Y00808956D01*
D02*
G37*
G36*
X0040176Y0079168D02*
Y00777968D01*
X00400036Y00777254D01*
X00396866Y007696D01*
Y007544D01*
X00400036Y00746746D01*
X0040176Y00746032D01*
Y0074295D01*
X00405723Y00733383D01*
X00429243Y00709863D01*
X00428268Y00704959D01*
X00423504Y00702986D01*
X0041936Y0069298D01*
X00406692D01*
X00403914Y00697137D01*
X00407109Y0070485D01*
X00401322Y00718822D01*
X0038735Y00724609D01*
X00386908Y00724426D01*
X00378201Y00733133D01*
Y00791455D01*
X00382359Y00794233D01*
X00389709Y00791188D01*
X00397603Y00794458D01*
X0040176Y0079168D01*
D02*
G37*
G36*
X00542883Y00742273D02*
X00542883Y00742273D01*
X0054411Y00741765D01*
X00545909Y00736493D01*
X00518006Y0070859D01*
X0051562Y00709578D01*
X00514257Y00709014D01*
X005101Y00711792D01*
Y0075692D01*
X005101Y0075692D01*
X00509268Y00758929D01*
X0051054Y00762D01*
X00506619Y00771465D01*
X00510858Y00774298D01*
X00542883Y00742273D01*
D02*
G37*
D10*
X0026924Y0020447D02*
X0116924D01*
X0026924D02*
Y0098447D01*
X0116924D01*
Y0020447D02*
Y0098447D01*
D11*
X0078232Y0080645D02*
X0079375D01*
X0038735Y0034671D02*
X0039624D01*
X0106045Y0044831D02*
X0108458D01*
X0103124Y0047752D02*
X0106045Y0044831D01*
X0099695Y0047752D02*
X0103124D01*
X008636Y0056896D02*
X0095504Y0047752D01*
X0099695D01*
X0095885Y0044577D02*
X0099695D01*
X0100838Y0042291D02*
Y0045593D01*
X0100076Y0046355D02*
X0100838Y0045593D01*
X0090805Y0046609D02*
X0091059Y0046355D01*
X0100076D01*
X0090805Y0044577D02*
Y0046609D01*
X0082931Y0054483D02*
X0090805Y0046609D01*
X0082931Y0054483D02*
Y0076708D01*
X00889Y0042037D02*
X0091186D01*
X00912114Y0039243D02*
Y00420116D01*
X0091186Y0042037D02*
X00912114Y00420116D01*
X0091186Y0042037D02*
X0093091D01*
X0088265Y0042672D02*
X00889Y0042037D01*
X0093091D02*
X0093345Y0042291D01*
Y0044577D01*
X0083693D02*
X0088265D01*
X00762Y0080645D02*
X0078232D01*
X0078994Y0049276D02*
X0083693Y0044577D01*
X0078994Y0049276D02*
Y0070612D01*
X0078232Y0080645D02*
X0078994Y0079883D01*
X008255Y0078613D02*
Y0082677D01*
X0080391Y0076708D02*
X0082296Y0078613D01*
X008255D01*
X0062865D02*
X0082296D01*
X0060579Y0080899D02*
X0062865Y0078613D01*
X0081915Y0028448D02*
X0082169Y0028702D01*
Y0030861D01*
X0043053Y0038481D02*
X0082042D01*
X0040513Y0035941D02*
X0043053Y0038481D01*
X0040513Y0033782D02*
Y0035941D01*
X004953Y0036068D02*
X0083312D01*
X0045974Y0032512D02*
X004953Y0036068D01*
X0045974Y0026924D02*
Y0032512D01*
X0084455Y0037211D02*
X0088646D01*
X0083312Y0036068D02*
X0084455Y0037211D01*
X00389709Y0081026D02*
X0038989Y00810441D01*
Y0083312D01*
X0040767Y008509D01*
X0049276D01*
X0057277D02*
X006223D01*
X0058547Y0061722D02*
X0064897Y0068072D01*
X006223Y008509D02*
X0063119Y0084201D01*
Y0082804D02*
Y0084201D01*
X0054356Y0091186D02*
X0056134Y0089408D01*
Y0082804D02*
Y0089408D01*
Y0082804D02*
X0060579D01*
X0037846Y0091186D02*
X0054356D01*
X0080264Y0076581D02*
X0080391Y0076708D01*
X0080264Y0073406D02*
Y0076581D01*
X008636Y0056896D02*
Y0073406D01*
X007874Y0027813D02*
X0079375Y0028448D01*
X007874Y0025527D02*
Y0027813D01*
X0077851Y0071882D02*
Y0076708D01*
X0074041Y0068072D02*
X0077851Y0071882D01*
X0064897Y0068072D02*
X0074041D01*
X0058547Y0040005D02*
Y0061722D01*
X0055118Y0039878D02*
Y0061976D01*
X0063754Y0070612D01*
X0072771D01*
X0075311Y0073152D01*
Y0076708D01*
X0053086Y0032766D02*
X0055118D01*
X0050927Y0030607D02*
X0053086Y0032766D01*
X0058547Y0031369D02*
Y0032893D01*
X0058166Y0030988D02*
X0058547Y0031369D01*
X0053975Y0030988D02*
X0058166D01*
X0053467Y003048D02*
X0053975Y0030988D01*
X0053467Y0026797D02*
Y003048D01*
X0050927Y0026797D02*
Y0030607D01*
X0084328Y0078105D02*
Y0083947D01*
X0089789Y0081534D02*
X0094615Y0076708D01*
X00912114Y00371602D02*
Y0039243D01*
X0098171D01*
X0100584Y003683D01*
Y0032893D02*
Y003683D01*
Y0032893D02*
X010287Y0030607D01*
X0107442D01*
X0108458Y0029591D01*
X0100838Y0042291D02*
X0108458Y0034671D01*
X0095885Y0044577D02*
X0096139Y0044831D01*
X0088265Y0042672D02*
Y0044577D01*
X0045847Y0026797D02*
X0045974Y0026924D01*
X0048387Y0026797D02*
Y0032766D01*
X00502158Y00345948D01*
X00886206D01*
X0091948Y0032512D02*
X0092075Y0032385D01*
X00911733Y00332867D02*
X0091948Y0032512D01*
X0079375Y0028448D02*
Y0030734D01*
X0081153Y0032512D01*
X0091948D01*
X00911733Y00332867D02*
Y00346329D01*
X0092075Y0032385D02*
X0095504D01*
X00962406Y00331216D01*
Y00345948D01*
X00911733Y00371221D02*
X00912114Y00371602D01*
X00911733Y00346329D02*
Y00371221D01*
X0099441Y003302D02*
Y0035814D01*
X0097663Y0031242D02*
X0099441Y003302D01*
X0091694Y0031242D02*
X0097663D01*
X0089408Y0028956D02*
X0091694Y0031242D01*
X0089408Y0026543D02*
Y0028956D01*
X0096266Y00371602D02*
X00980948D01*
X0099441Y0035814D01*
X0088392Y0025527D02*
X0089408Y0026543D01*
X0084074Y0025527D02*
X0088392D01*
X00514894Y00789396D02*
Y0081026D01*
Y00789396D02*
X0055245Y0075184D01*
X0066167D01*
X0067691Y0076708D01*
X0060579Y0080899D02*
Y0082804D01*
X0063119Y0082169D02*
Y0082804D01*
Y0082169D02*
X0064643Y0080645D01*
X0067056D01*
X0068199Y0081788D01*
Y0082804D01*
X0074803Y0082042D02*
Y0082804D01*
Y0082042D02*
X00762Y0080645D01*
X0079375D02*
X0079883Y0081153D01*
Y0082804D01*
X0068199D02*
X0074803D01*
X0065532Y008509D02*
X0065659Y0084963D01*
X0064135Y0086487D02*
X0065532Y008509D01*
X0078232D01*
X0082423Y0082804D02*
X008255Y0082677D01*
X0077343Y0082804D02*
Y0084201D01*
X0078232Y008509D01*
X0083185D01*
X0084328Y0083947D01*
X0082931Y0076708D02*
X0084328Y0078105D01*
X0086868Y0081534D02*
X0087249D01*
X0092075Y0076708D01*
X0089408Y0081534D02*
X0089789D01*
X0098044Y0078232D02*
X0099314D01*
X0094742Y0081534D02*
X0098044Y0078232D01*
X0094488Y0081534D02*
X0094742D01*
X0091948D02*
X0092075D01*
X0096901Y0076708D01*
X0097155D01*
X0099314Y0078232D02*
X0099695Y0077851D01*
Y0076708D02*
Y0077851D01*
X0056007Y0026797D02*
X0057658Y0028448D01*
X0059817D01*
X0062738Y0025527D01*
X007874D01*
X008128D02*
X0081915Y0026162D01*
Y0028448D01*
X008128Y0025527D02*
X0084074D01*
X0034036Y0034671D02*
X0038735D01*
X0084074Y0028067D02*
X0084455Y0028448D01*
X0084074Y0025527D02*
Y0028067D01*
X0057023Y0025273D02*
X0058547Y0026797D01*
X0041021Y0025273D02*
X0057023D01*
X0040513Y0025781D02*
X0041021Y0025273D01*
X0040513Y0025781D02*
Y0033782D01*
X0039624Y0034671D02*
X0040513Y0033782D01*
X0049149Y00762D02*
X0049657Y0075692D01*
Y0050673D02*
Y0075692D01*
X0038735Y0039751D02*
X0049657Y0050673D01*
X0046482Y0076073D02*
X0046609Y00762D01*
X0046482Y007366D02*
Y0076073D01*
Y007366D02*
X0048133Y0072009D01*
Y0054229D02*
Y0072009D01*
X0038735Y0044831D02*
X0048133Y0054229D01*
X0044069Y0073787D02*
Y00762D01*
Y0073787D02*
X0046736Y007112D01*
Y0057912D02*
Y007112D01*
X0038735Y0049911D02*
X0046736Y0057912D01*
X0041529Y0074295D02*
Y00762D01*
Y0074295D02*
X00455335Y00702905D01*
Y00617895D02*
Y00702905D01*
X0038735Y0054991D02*
X00455335Y00617895D01*
X0072771Y0074041D02*
Y0076708D01*
X0071374Y0072644D02*
X0072771Y0074041D01*
X0060198Y0072644D02*
X0071374D01*
X0051562Y0064008D02*
X0060198Y0072644D01*
X0070104Y0076581D02*
X0070231Y0076708D01*
X0070104Y007493D02*
Y0076581D01*
X0068961Y0073787D02*
X0070104Y007493D01*
X0056642Y0073787D02*
X0068961D01*
X0051562Y0068707D02*
X0056642Y0073787D01*
X0042545Y0062611D02*
X0043942Y0064008D01*
X0038735Y0062611D02*
X0042545D01*
X004318Y0067945D02*
X0043942Y0068707D01*
X0038735Y0067945D02*
X004318D01*
X00364672Y00674189D02*
Y00727529D01*
Y00674189D02*
X0038735Y0065151D01*
X00364672Y00727529D02*
Y0081026D01*
Y00727529D02*
X0038735Y0070485D01*
X00489857Y0081026D02*
X0049149Y00808627D01*
Y00762D02*
Y00808627D01*
X0046482Y0081026D02*
X0046609Y0080899D01*
Y00762D02*
Y0080899D01*
X00439783Y0081026D02*
X0044069Y00809353D01*
Y00762D02*
Y00809353D01*
X00414746Y0081026D02*
X0041529Y00809716D01*
Y00762D02*
Y00809716D01*
X00364672Y0081026D02*
Y00868861D01*
X0037592Y0088011D01*
X0051181D01*
X00364672Y00925648D02*
Y0093726D01*
Y00925648D02*
X0037846Y0091186D01*
X00389709Y00927281D02*
Y0093726D01*
Y00927281D02*
X003937Y0092329D01*
X0057404D01*
X0058166Y0091567D01*
Y0087884D02*
Y0091567D01*
Y0087884D02*
X0059563Y0086487D01*
X0064135D01*
X0065659Y0082804D02*
Y0084963D01*
X00414746Y0093726D02*
X00439783D01*
D12*
X0034036Y0029591D02*
X0038735D01*
X005334Y00816791D02*
Y0086868D01*
Y00816791D02*
X00539931Y0081026D01*
X0051181Y00813344D02*
X00514894Y0081026D01*
X0051181Y00813344D02*
Y0088011D01*
X0052578Y0089408D01*
X005334D01*
D13*
X0068834Y0087503D02*
Y0089789D01*
X0062484Y0089662D02*
X0062611Y0089789D01*
X0068834D01*
X0062738Y0093853D02*
X0074041D01*
X0068834Y0087503D02*
X008763D01*
X0074041Y0093853D02*
X0093726D01*
X0074041Y0091059D02*
Y0093853D01*
X0086741Y0088392D02*
X008763Y0087503D01*
X0088392Y0086741D01*
X0086741Y0088392D02*
Y0090805D01*
X0086995Y0091059D01*
X0097282Y0082169D02*
Y0084201D01*
X0094742Y0086741D02*
X0097282Y0084201D01*
X0088392Y0086741D02*
X0094742D01*
X0097282Y0082169D02*
X0098933Y0080518D01*
X0105664D01*
X0106553Y0081407D01*
X0092075Y0091059D02*
Y0092202D01*
X0093726Y0093853D01*
X0100457D01*
X0106553Y0087757D01*
D14*
X0113919Y0023622D02*
D03*
X0029464D02*
D03*
Y0095504D02*
D03*
X0113919D02*
D03*
X0062357Y0093853D02*
D03*
D15*
X0058547Y0040005D02*
D03*
X0055118Y0039878D02*
D03*
X0058547Y0032893D02*
D03*
X0055118Y0032766D02*
D03*
X0033909Y0029591D02*
D03*
Y0034671D02*
D03*
D16*
X0086995Y0076708D02*
D03*
Y0028448D02*
D03*
X0104775D02*
D03*
X0060071Y0076708D02*
D03*
X0086868Y0081534D02*
D03*
X008128Y0025527D02*
D03*
D17*
X0089535Y0076708D02*
D03*
X0092075D02*
D03*
X0094615D02*
D03*
X0097155D02*
D03*
X0099695D02*
D03*
X0102235D02*
D03*
X0104775D02*
D03*
X0069215Y0028448D02*
D03*
X0071755D02*
D03*
X0074295D02*
D03*
X0076835D02*
D03*
X0079375D02*
D03*
X0081915D02*
D03*
X0084455D02*
D03*
X0102235D02*
D03*
X0099695D02*
D03*
X0097155D02*
D03*
X0094615D02*
D03*
X0092075D02*
D03*
X0065151Y0076708D02*
D03*
X0082931D02*
D03*
X0080391D02*
D03*
X0077851D02*
D03*
X0075311D02*
D03*
X0072771D02*
D03*
X0070231D02*
D03*
X0067691D02*
D03*
X0062611D02*
D03*
X0038735Y0029591D02*
D03*
Y0034671D02*
D03*
Y0039751D02*
D03*
Y0044831D02*
D03*
Y0049911D02*
D03*
Y0054991D02*
D03*
X0108458Y0029591D02*
D03*
Y0034671D02*
D03*
Y0039751D02*
D03*
Y0044831D02*
D03*
Y0049911D02*
D03*
Y0054991D02*
D03*
X0094488Y0081534D02*
D03*
X0091948D02*
D03*
X0089408D02*
D03*
X007874Y0025527D02*
D03*
D18*
X0062484Y0089662D02*
D03*
D19*
X0049149Y00762D02*
D03*
X0046609D02*
D03*
X0044069D02*
D03*
X0045847Y0026797D02*
D03*
X0048387D02*
D03*
X0050927D02*
D03*
X0053467D02*
D03*
X0056007D02*
D03*
X0058547D02*
D03*
D20*
X0041529Y00762D02*
D03*
X0043307Y0026797D02*
D03*
D21*
X0106553Y0081407D02*
D03*
Y0087757D02*
D03*
D22*
X0101473Y0083947D02*
D03*
D23*
X0082423Y0082804D02*
D03*
X0079883D02*
D03*
X0077343D02*
D03*
X0068199D02*
D03*
X0065659D02*
D03*
X0063119D02*
D03*
X0095885Y0044577D02*
D03*
X0093345D02*
D03*
X0090805D02*
D03*
D24*
X0074803Y0082804D02*
D03*
X0060579D02*
D03*
X0088265Y0044577D02*
D03*
D25*
X00539931Y0093726D02*
D03*
X00514894D02*
D03*
X00489857D02*
D03*
X0046482D02*
D03*
X00439783D02*
D03*
X00414746D02*
D03*
X00389709D02*
D03*
X00364672D02*
D03*
X00539931Y0081026D02*
D03*
X00514894D02*
D03*
X00489857D02*
D03*
X0046482D02*
D03*
X00439783D02*
D03*
X00414746D02*
D03*
X00389709D02*
D03*
X00364672D02*
D03*
D26*
X0086995Y0091059D02*
D03*
X0092075D02*
D03*
X0068961D02*
D03*
X0074041D02*
D03*
D27*
X0038735Y0052451D02*
D03*
Y0047371D02*
D03*
Y0042291D02*
D03*
Y0037211D02*
D03*
Y0032131D02*
D03*
X0108458D02*
D03*
Y0037211D02*
D03*
Y0042291D02*
D03*
Y0047371D02*
D03*
Y0052451D02*
D03*
D28*
X0038735Y0067945D02*
D03*
Y0062611D02*
D03*
D29*
Y0070485D02*
D03*
Y0065151D02*
D03*
D30*
X0043942Y0068707D02*
D03*
X0051562D02*
D03*
X0043942Y0064008D02*
D03*
X0051562D02*
D03*
D31*
X0096266Y00371602D02*
D03*
X0093726D02*
D03*
X00912114D02*
D03*
X0088646Y0037211D02*
D03*
X00886206Y00345948D02*
D03*
X00911733Y00346329D02*
D03*
X00937006Y00345948D02*
D03*
D32*
X00962406D02*
D03*
D33*
X005334Y0089408D02*
D03*
D34*
Y0086868D02*
D03*
D35*
X0099695Y0047752D02*
D03*
Y0044577D02*
D03*
X0078994Y0070612D02*
D03*
Y0079883D02*
D03*
X0082169Y0030861D02*
D03*
X0082042Y0038481D02*
D03*
X0049276Y008509D02*
D03*
X0057277D02*
D03*
X0080264Y0073406D02*
D03*
X008636D02*
D03*
M02*
