M48
;Layer_Color=9474304
;FILE_FORMAT=4:4
METRIC,LZ
;TYPE=PLATED
T1F00S00C0.6000
T2F00S00C0.7112
T3F00S00C0.7620
T4F00S00C0.8636
T5F00S00C0.8890
T6F00S00C0.9144
T7F00S00C1.0160
T8F00S00C1.0200
T9F00S00C1.1000
T11F00S00C1.3000
T12F00S00C3.5000
%
T01
X0026416Y0066421
Y0068961
T02
X0055245Y0010414
X0055118Y0018034
X0072771Y002413
Y0027305
X0059436Y0052959
X005334
X005207Y0050165
Y0059436
X0030353Y0064643
X0022352
T03
X0006985Y0009144
Y0014224
X0028194Y0012319
X0031623Y0012446
Y0019558
X0028194Y0019431
X00120469Y0060579
X00095431
Y0073279
X00120469
X00145506
X00170543
X0019558
X00220617
X00245654
X00270691
X0035433Y0073406
X003556Y0069215
X00270691Y0060579
X00245654
X00220617
X0019558
X00170543
X00145506
T04
X0061341Y002413
X0063881
X0066421
X0068961
X0050419Y0062357
X0047879
X0041275
X0038735
X0036195
X0033655
X0052959
X0055499
T05
X0017018Y0043561
Y004826
X0024638
Y0043561
T06
X00616966Y00141478
X00642493Y00141859
X00642874Y00167132
X0066802
X0069342
X00693166Y00141478
X00667766
X0061722Y0016764
T07
X0011811Y0042164
Y0044704
Y0047498
Y0050038
T08
X0016383Y000635
X0018923
X0021463
X0024003
X0026543
X0029083
X0031623
X0022225Y0055753
X0019685
X0017145
X0014605
T09
X0011811Y0009144
Y0011684
Y0014224
Y0016764
X0042291Y0008001
X0044831
X0047371
X0049911
X0051816Y000508
X0054356
X0054991Y0008001
X0052451
X0057531
X0060071
X0065151
X0067691
X0070231
X0072771
X0075311
X0077851
X0081534Y0009144
Y0011684
Y0014224
Y0016764
Y0019304
Y0021844
Y0024384
Y0026924
Y0029464
Y0032004
Y0034544
X0077851Y0056261
X0075311
X0072771
X0070231
X0067691
X0065151
X0062611
X0060071
X0056007
X0053467
X0050927
X0048387
X0045847
X0043307
X0040767
X0038227
X0035687
X0033147
X0011811Y0034544
Y0032004
Y0029464
Y0026924
Y0024384
Y0021844
Y0019304
X0059944Y0061087
X0062484
X0065024
X0067564
T11
X0042037Y0070612
X0047117
X0060071
X0065151
T12
X000254Y0003175
X0086995
X000254Y0075057
X0086995
M30
